HIERARCHY
ROOT Hips
{
    OFFSET 0.000000 0.000000 0.000000
    CHANNELS 6 Xposition Yposition Zposition Zrotation Xrotation Yrotation
    JOINT Spine
    {
        OFFSET -0.000000 14.517291 0.000000
        CHANNELS 3 Zrotation Xrotation Yrotation
        JOINT Spine1
        {
            OFFSET -0.000000 37.558300 0.000000
            CHANNELS 3 Zrotation Xrotation Yrotation
            JOINT Neck
            {
                OFFSET -0.000000 37.404057 3.400369
                CHANNELS 3 Zrotation Xrotation Yrotation
                JOINT Head
                {
                    OFFSET -0.000000 24.785618 -3.540803
                    CHANNELS 3 Zrotation Xrotation Yrotation
                    End Site
                    {
                        OFFSET -0.000000 35.408028 0.000000
                    }
                }
            }
            JOINT LeftShoulder
            {
                OFFSET 6.992933 33.973492 -0.192664
                CHANNELS 3 Zrotation Xrotation Yrotation
                JOINT LeftArm
                {
                    OFFSET 21.527611 0.000000 0.000000
                    CHANNELS 3 Zrotation Xrotation Yrotation
                    JOINT LeftForeArm
                    {
                        OFFSET 56.353916 0.000000 0.000000
                        CHANNELS 3 Zrotation Xrotation Yrotation
                        JOINT LeftHand
                        {
                            OFFSET 47.774071 0.000000 0.000000
                            CHANNELS 3 Zrotation Xrotation Yrotation
                            End Site
                            {
                                OFFSET 26.556021 0.000000 0.000000
                            }
                        }
                    }
                }
            }
            JOINT RightShoulder
            {
                OFFSET -7.065357 33.973492 -0.192664
                CHANNELS 3 Zrotation Xrotation Yrotation
                JOINT RightArm
                {
                    OFFSET -21.527611 0.000000 0.000000
                    CHANNELS 3 Zrotation Xrotation Yrotation
                    JOINT RightForeArm
                    {
                        OFFSET -56.353916 0.000000 0.000000
                        CHANNELS 3 Zrotation Xrotation Yrotation
                        JOINT RightHand
                        {
                            OFFSET -47.774071 0.000000 0.000000
                            CHANNELS 3 Zrotation Xrotation Yrotation
                            End Site
                            {
                                OFFSET -26.556021 0.000000 0.000000
                            }
                        }
                    }
                }
            }
        }
    }
    JOINT LeftUpLeg
    {
        OFFSET 17.704014 0.000000 0.000000
        CHANNELS 3 Zrotation Xrotation Yrotation
        JOINT LeftLeg
        {
            OFFSET -0.000000 -81.181816 0.000000
            CHANNELS 3 Zrotation Xrotation Yrotation
            JOINT LeftFoot
            {
                OFFSET -0.000000 -62.821102 0.000000
                CHANNELS 3 Zrotation Xrotation Yrotation
                JOINT LeftToeBase
                {
                    OFFSET -0.000000 -11.507608 26.556021
                    CHANNELS 3 Zrotation Xrotation Yrotation
                    End Site
                    {
                        OFFSET -0.000000 0.000000 7.081605
                    }
                }
            }
        }
    }
    JOINT RightUpLeg
    {
        OFFSET -17.704014 0.000000 0.000000
        CHANNELS 3 Zrotation Xrotation Yrotation
        JOINT RightLeg
        {
            OFFSET -0.000000 -81.181816 0.000000
            CHANNELS 3 Zrotation Xrotation Yrotation
            JOINT RightFoot
            {
                OFFSET -0.000000 -62.821102 0.000000
                CHANNELS 3 Zrotation Xrotation Yrotation
                JOINT RightToeBase
                {
                    OFFSET -0.000000 -11.507608 26.556021
                    CHANNELS 3 Zrotation Xrotation Yrotation
                    End Site
                    {
                        OFFSET -0.000000 0.000000 7.081605
                    }
                }
            }
        }
    }
}
MOTION
Frames:    13
Frame Time:    0.008333
40.419403    149.915955    -100.356003    -0.804206    -28.930996    22.221838    -1.295387    -6.382455    -3.581552    -8.857264    -3.929397    -1.474220    10.687220    -1.268111    -0.373824    1.060431    -3.788299    -1.917384    5.269484    -4.105223    -15.295269    -27.533646    -33.297031    -37.766068    -26.438845    -45.838364    -105.355301    -61.069725    -43.992027    -58.235935    -11.551145    2.000680    -8.465114    14.408220    16.905405    16.192282    17.755424    14.239593    -2.134167    24.984394    17.934874    15.752635    15.896629    22.429224    1.693845    -14.974193    46.575531    -13.587532    22.820255    -37.939991    53.090717    0.000000    0.000000    0.000000    -3.875740    -7.114816    -1.712261    10.385674    30.982079    -9.705491    3.831921    11.185364    -10.851806    0.000000    0.000000    0.000000    
40.419872    149.902390    -100.367393    -0.806137    -28.938892    22.178352    -1.312618    -6.397501    -3.566807    -8.836297    -3.901095    -1.466068    10.703695    -1.255875    -0.357705    1.043164    -3.789087    -1.905159    5.291113    -4.116994    -15.302813    -27.543644    -33.262169    -37.806686    -26.389708    -45.890320    -105.315575    -61.116005    -43.949989    -58.225773    -11.538735    2.025749    -8.488111    14.422325    16.881405    16.249424    17.767776    14.219510    -2.029631    25.033308    17.913837    15.786230    15.878119    22.452444    1.750787    -14.947226    46.574177    -13.585979    22.816391    -37.964710    53.068584    0.000000    0.000000    0.000000    -3.889418    -7.127732    -1.691928    10.417829    30.990202    -9.748762    3.829044    11.198213    -10.810391    0.000000    0.000000    0.000000    
40.424335    149.894455    -100.378441    -0.799852    -28.946922    22.136328    -1.336566    -6.405238    -3.550026    -8.800147    -3.873528    -1.456629    10.678053    -1.243503    -0.351830    1.065172    -3.788824    -1.889851    5.300999    -4.121723    -15.299866    -27.561377    -33.217339    -37.866562    -26.339233    -45.962448    -105.282646    -61.204823    -43.897408    -58.227776    -11.538811    2.056368    -8.518072    14.445618    16.841089    16.319611    17.776405    14.217392    -1.956802    25.083162    17.912262    15.806138    15.845840    22.476778    1.823959    -14.892965    46.579826    -13.623469    22.788239    -37.990356    53.049702    0.000000    0.000000    0.000000    -3.913774    -7.134646    -1.688021    10.445481    30.999128    -9.760418    3.817051    11.215921    -10.776278    0.000000    0.000000    0.000000    
40.422344    149.890656    -100.393585    -0.800408    -28.944557    22.098965    -1.357258    -6.424123    -3.542775    -8.772921    -3.837178    -1.450040    10.672971    -1.232974    -0.332072    1.068269    -3.792467    -1.866929    5.326708    -4.135599    -15.291445    -27.612309    -33.214230    -37.935989    -26.317081    -45.963696    -105.246704    -61.258804    -43.842808    -58.196678    -11.534691    2.054924    -8.520062    14.492806    16.808672    16.357956    17.793255    14.208601    -1.906246    25.096132    17.898056    15.805533    15.814529    22.477432    1.875448    -14.852293    46.591049    -13.648205    22.770214    -38.002583    53.052238    0.000000    0.000000    0.000000    -3.935490    -7.148015    -1.676472    10.480234    30.997263    -9.796354    3.799736    11.229987    -10.732302    0.000000    0.000000    0.000000    
40.416340    149.886795    -100.417076    -0.807389    -28.928545    22.068483    -1.378975    -6.437695    -3.542930    -8.741177    -3.816244    -1.446946    10.707776    -1.237550    -0.303613    1.004895    -3.773527    -1.854592    5.352305    -4.136471    -15.277680    -27.665348    -33.197662    -38.024239    -26.329546    -45.976711    -105.260246    -61.328579    -43.845463    -58.178417    -11.518604    2.069340    -8.537875    14.600201    16.877026    16.435070    17.590061    13.982916    -1.837583    25.289913    17.667807    15.703699    15.783687    22.438644    1.908014    -14.835535    46.636116    -13.653537    22.769085    -37.992409    53.079838    0.000000    0.000000    0.000000    -3.961231    -7.168602    -1.651295    10.525644    30.980085    -9.835828    3.825303    11.237376    -10.707239    0.000000    0.000000    0.000000    
40.407734    149.883591    -100.442032    -0.814033    -28.916407    22.056608    -1.385226    -6.436174    -3.560302    -8.733913    -3.804060    -1.451415    10.724653    -1.249002    -0.270122    0.986183    -3.740546    -1.827070    5.384077    -4.139952    -15.266301    -27.696997    -33.146984    -38.100166    -26.330532    -46.041283    -105.280769    -61.416836    -43.835365    -58.233932    -11.485051    2.084725    -8.542604    14.624087    16.885536    16.475649    17.571110    13.999321    -1.791162    25.274549    17.687805    15.764058    15.760052    22.390821    1.895679    -14.839272    46.688198    -13.640763    22.772596    -37.993294    53.118980    0.000000    0.000000    0.000000    -3.985706    -7.180375    -1.644164    10.565117    30.962027    -9.850812    3.850696    11.246929    -10.700666    0.000000    0.000000    0.000000    
40.391369    149.879532    -100.472870    -0.833202    -28.901180    22.041008    -1.388765    -6.425972    -3.575611    -8.708170    -3.801545    -1.455428    10.746374    -1.243221    -0.237134    0.946014    -3.736209    -1.802765    5.398593    -4.140762    -15.268930    -27.744158    -33.137135    -38.190697    -26.303612    -46.072762    -105.261932    -61.497604    -43.777134    -58.237759    -11.464888    2.085894    -8.527257    14.661832    16.874784    16.476887    17.571697    14.034199    -1.754561    25.258511    17.724936    15.812171    15.760214    22.327932    1.847664    -14.915171    46.737743    -13.570206    22.787663    -37.981430    53.171024    0.000000    0.000000    0.000000    -3.997544    -7.193734    -1.633638    10.595842    30.929623    -9.849236    3.887490    11.256483    -10.699424    0.000000    0.000000    0.000000    
40.371952    149.870590    -100.503113    -0.855548    -28.885399    22.033251    -1.377631    -6.411194    -3.597430    -8.706983    -3.793066    -1.462306    10.799918    -1.255289    -0.195293    0.883857    -3.712949    -1.780058    5.434248    -4.149600    -15.282693    -27.793468    -33.148552    -38.262703    -26.309633    -46.080875    -105.263329    -61.583378    -43.731445    -58.252262    -11.431929    2.110745    -8.518460    14.693088    16.864202    16.506914    17.613783    14.228415    -1.819379    25.113644    17.944733    15.992736    15.775316    22.267694    1.773214    -15.016301    46.773003    -13.487818    22.838989    -37.955647    53.228168    0.000000    0.000000    0.000000    -4.006476    -7.203085    -1.645122    10.616918    30.898142    -9.847280    3.932473    11.252757    -10.693297    0.000000    0.000000    0.000000    
40.356129    149.860123    -100.529327    -0.871988    -28.872869    22.025764    -1.369366    -6.390779    -3.609757    -8.703473    -3.784981    -1.465941    10.873581    -1.204552    -0.156148    0.791879    -3.771011    -1.761884    5.472138    -4.135915    -15.302466    -27.872705    -33.232616    -38.359825    -26.378244    -45.978733    -105.270149    -61.542953    -43.724937    -58.258781    -11.388128    2.116274    -8.497324    14.700308    16.913120    16.506413    17.609634    14.221096    -1.783114    25.159306    17.942570    16.011320    15.789358    22.226208    1.713455    -15.106524    46.790810    -13.386270    22.872030    -37.948536    53.232971    0.000000    0.000000    0.000000    -4.016834    -7.200550    -1.675924    10.617537    30.859362    -9.788634    3.952483    11.239947    -10.686617    0.000000    0.000000    0.000000    
40.340286    149.849121    -100.554367    -0.886714    -28.864214    22.004583    -1.354757    -6.364263    -3.607089    -8.694242    -3.766285    -1.463687    10.922575    -1.184080    -0.140142    0.717080    -3.791995    -1.764074    5.593681    -4.369074    -15.326449    -28.122965    -33.193794    -38.348324    -26.423815    -45.776909    -105.270653    -61.460434    -43.668617    -58.176105    -11.362626    2.109674    -8.497384    14.696456    17.017672    16.528578    17.572918    14.013404    -1.656109    25.387125    17.717199    15.854473    15.808290    22.207735    1.675951    -15.200809    46.784107    -13.315074    22.921255    -37.932697    53.256653    0.000000    0.000000    0.000000    -4.024350    -7.192943    -1.698798    10.608134    30.821238    -9.748038    3.998584    11.220079    -10.653141    0.000000    0.000000    0.000000    
40.332375    149.835510    -100.579788    -0.883367    -28.844124    21.979124    -1.347356    -6.349970    -3.591275    -8.703553    -3.732942    -1.456364    10.989855    -1.145541    -0.119745    0.647989    -3.842798    -1.761681    5.628457    -4.367005    -15.370739    -28.138176    -33.205208    -38.414448    -26.430426    -45.785431    -105.290909    -61.446835    -43.713852    -58.159313    -11.325646    2.086052    -8.475962    14.697501    17.068947    16.518431    17.593292    14.009149    -1.663780    25.463100    17.730038    15.877267    15.799441    22.202826    1.703229    -15.220253    46.682133    -13.310167    22.987934    -37.883732    53.268322    0.000000    0.000000    0.000000    -4.059072    -7.190453    -1.709813    10.612810    30.783901    -9.685663    4.035910    11.183142    -10.647079    0.000000    0.000000    0.000000    
40.328049    149.826523    -100.603333    -0.871546    -28.821951    21.949312    -1.354880    -6.336918    -3.570342    -8.683470    -3.689510    -1.445387    10.995246    -1.163276    -0.105890    0.637242    -3.806189    -1.751956    5.637842    -4.378012    -15.398342    -28.020643    -33.012901    -38.420433    -26.380424    -46.027275    -105.357849    -61.563503    -43.780773    -58.304440    -11.314641    2.084577    -8.461818    14.651295    16.945257    16.532871    17.803745    14.033198    -1.692991    25.650278    17.750759    15.712792    15.773555    22.206709    1.770978    -15.207339    46.660240    -13.374315    23.032076    -37.867085    53.282349    0.000000    0.000000    0.000000    -4.104748    -7.187088    -1.731777    10.620872    30.752066    -9.614893    4.065673    11.142539    -10.618358    0.000000    0.000000    0.000000    
40.323013    149.819992    -100.637115    -0.861903    -28.782318    21.905937    -1.360084    -6.328362    -3.542006    -8.672071    -3.661034    -1.433290    10.989326    -1.166978    -0.096094    0.657764    -3.746852    -1.737931    5.668229    -4.351275    -15.444111    -28.008989    -33.039391    -38.474785    -26.304958    -46.069725    -105.303482    -61.582027    -43.703499    -58.303886    -11.288356    2.094461    -8.426876    14.651623    17.059912    16.508953    17.744362    13.988632    -1.655618    25.718380    17.704393    15.687391    15.731408    22.187647    1.870025    -15.180112    46.654655    -13.429043    23.042616    -37.851807    53.266575    0.000000    0.000000    0.000000    -4.151448    -7.206386    -1.758755    10.604482    30.723345    -9.553626    4.102819    11.111238    -10.560514    0.000000    0.000000    0.000000    
